<svg version="1.2" xmlns="http://www.w3.org/2000/svg" viewBox="0 0 5334 5334" width="5334" height="5334"><style>.a{fill:#00b37e}.b{fill:#00875f}.c{fill:#b5b5b5}</style><path class="a" d="m4784.4 2913.7c-0.2 13.8-5.8 20.9-11.8 23.8-1.7 7.2-3.4 14.3-5 21.4 1 1.6 1.7 3.5 2.2 5.6 0.5 2.2 0.7 4.6 0.8 7.1 0.1 5-0.4 10.7-0.7 16.2 1 9 0.3 18.1-1.3 27.1-1.8 9-4.7 18-7.7 27 2.1 13.2 0.1 27.2-3.3 41.1-1.7 6.9-3.7 13.9-5.5 20.9q-1.4 5.3-2.6 10.5-0.6 2.6-1.2 5.2-0.6 2.6-1.1 5.1c-1.9 10.7-5.4 20.1-9.2 29.1-1.9 4.5-4 8.9-6 13.3-2 4.4-4.1 8.7-6 13.3l-4 11.6c-2 7.6-4 15.2-6 22.8 1.2 11.1-1.1 21-4.8 30.3-1.9 4.7-4.1 9.2-6.6 13.6q-1.8 3.3-3.8 6.6c-1.3 2.2-2.6 4.3-4 6.5-0.5 13.9-5 26.5-10.5 38.7-1.3 3.1-2.8 6.1-4.3 9.2l-4.5 9c-3 6.1-5.8 12.2-8.1 18.5l-3.5 9.4-1.7 4.7-1.8 4.6-7.3 18.6c-4.9 12.4-9.6 24.9-14.9 37.1-5.1 12.3-10.1 24.6-15.4 36.9q-8 18.3-16 36.6c-21.8 48.5-44.8 96.5-68.6 144.2-7.4 14.4-16.2 28.5-25.4 42.5-9.5 13.7-19.4 27.4-28.6 41.1-5.3 14.9-12.2 29.2-20 43.3-8 14-17.1 27.6-26.4 41.1-2.4 3.4-4.8 6.7-7.2 10l-7.4 9.9c-4.8 6.7-9.7 13.3-14.6 19.9l-3.6 5-3.7 4.9q-3.7 4.9-7.2 9.8-7.2 10-13.8 20.1c-3 8.6-7.5 16.8-13 24.7-5.5 7.9-12 15.6-19.3 23-1.5 8.2-6.6 14.5-14.8 18.9-6.1 7.3-11 17.5-16.9 25.4-6 7.8-12.9 13.6-22.5 12.3q-1 6.7-7.1 7.6c5.8 5.1 6 11.4 1.9 18.6-4.3 7.2-13.1 15.2-25 23.7-0.7-1.7-1.2-3.6-1.2-5.7q0 3.2 1.2 5.8l-8.1 7.7-4 3.8-4.1 3.8-16.6 15c-0.4 5-0.5 9.8-2.9 14.9-1.2 2.5-3 5.1-5.7 7.8-2.7 2.6-6.4 5.2-11.3 8q-13 12.4-26.1 24.9c-3.9 10.2-5.5 21-23.5 27.9-5.4 5.2-10.7 10.6-16.2 15.7l-20.7 18.1-10.4 9.1c-3.5 3-7.1 5.9-10.6 8.9l-21.1 17.6c-3.6 3-7.1 5.9-10.6 8.8l-10.8 8.6c-5.4 11-12.5 21.4-20.7 31.2-8.4 9.7-18 18.8-28.3 27.6q-3.9 3.3-8 6.5c-2.6 2.2-5.4 4.2-8.2 6.3q-8.4 6.2-17.1 12.2c-5.8 4.1-11.7 8-17.6 12q-9 5.7-18 11.5c-9.2 11.5-19.7 22.8-36 31.1-15.7 7.3-31.2 14.6-47.1 21.4-6.1 4.5-12.1 9-18.2 13.5-3.2 3.8-6.2 7.9-9.4 11.8-3.2 3.8-6.6 7.6-10.3 10.8-7.6 6.5-17.1 11-31.1 10.4-21.9 6-34 17.3-45.4 29.2-11.4 11.6-22.3 23.7-41.2 31-8.3 5.2-16.8 10.3-25.3 15.5q-5.2 6.7-11.3 12.3-3.1 2.8-6.4 5.4c-2.2 1.7-4.4 3.3-6.8 4.8-9.2 6.2-19.4 11.2-30 15.8-10.6 4.6-21.8 8.2-32.9 11.9q-8.4 2.8-16.7 5.6c-5.5 1.9-11 3.8-16.5 5.7-11.9 4.3-22.1 6.6-26.8 2.1l-17 5.6c-5.6 1.9-11.3 3.6-16.9 5.3 1 1.2 0.8 2.8-0.8 4.8 3.5 4.9 7.3 9.2 4.5 13.8-2.7 4.6-11.9 9.6-34.4 15.2-15.6 3.7-31.7 8.9-47.7 15-16.2 5.7-32.2 12.4-47.7 19.6-17.2 7.7-36.8 15.7-54.5 12.8-15.3 4.8-31.4 8.3-46.9 12.8-3.8 1.2-7.7 2.3-11.5 3.5-3.8 1.2-7.5 2.6-11.1 4-7.3 3-14.3 6.6-20.7 11.1-3.1 2.1-6.7 3.9-10.5 5.4-3.8 1.4-7.8 2.3-11.8 2.8-7.9 0.9-15.4-0.3-20.2-4.6q-10.4 3.6-20.9 7.2c-7 2.3-14 4.5-21 6.7-7.1 0.2-15.1 1.5-23.3 3-4.2 0.7-8.3 1.5-12.4 2.2-4.1 0.6-8.2 1.2-12.1 1.6-8.9 0.9-17 0.9-23.1-1.3 6.1 2.2 14.2 2.2 23.1 1.3 3.9-0.4 8-1 12.1-1.6 4.1-0.7 8.3-1.5 12.4-2.2 8.2-1.5 16.2-2.8 23.3-3-11.2 5.2-23.1 9.4-35.4 12.6-12.3 3-25 5.3-37.8 7.3-12.8 2.1-25.8 3.4-38.7 4.9-6.4 0.7-12.8 1.5-19.2 2.3q-9.5 1.4-18.9 2.7c-14.8 2.1-31.6 5.9-48.8 8.2-17.2 2.2-34.9 3-51.1 0q-12 0.9-24.1 1.9c-10.7 2.9-21.4 5.6-32.3 8.1-11 2.2-22.1 4.3-33.4 6q-8.5 1.3-17.1 2.4-4.3 0.5-8.7 0.8-4.4 0.4-8.8 0.7c-11.8 0.7-23.9 1-36.2 0.8l-6.2 0.3-6.1 0.1q-6.1 0.1-12.3 0.2c-11 1.4-21.8 2.2-32.5 2.4-5.3 0.1-10.7 0-15.9-0.3q-7.9-0.4-15.7-1.2-15.5-1.5-30.6-4.3c-10-2.1-19.9-4.6-29.6-7.4-5.2 0.3-10.3 0.8-15.2 1.4-5 0.6-10 1.4-15 1.8-10 1-20.3 1.5-31.9 0.1q-10.1 1.8-20.4 2.5c-6.8 0.3-13.7 0.3-20.7 0.1-6.9-0.2-13.9-0.7-20.9-1.3-7-0.7-14-1.4-21-2.5-14.1-2.1-28.2-4.6-42.2-6.9q-5.3-0.8-10.6-1.8-5.2-0.9-10.5-1.7c-6.9-1.1-13.9-2.1-20.9-2.9-5.2-0.6-10.6-1.4-16-2.4-5.4-1-10.9-2.3-16.3-3.5-10.9-2.5-21.8-5.2-32.5-7.3-5.4-1-10.7-2-15.9-2.7-5.2-0.7-10.3-1.2-15.4-1.4-10-0.3-19.7 0.9-28.8 4.1-8.8-5.7-19.4-9.6-30.9-12.6-11.4-3-23.8-5-35.8-7.7-12.1-2.6-24-5.4-34.6-9.5-5.3-2-10.2-4.5-14.7-7.4-4.4-2.9-8.4-6.2-11.8-10.1l-17.5-6.5c-5.9-2.1-11.7-4.3-17.5-6.6-6.7 2.4-15.9-0.4-25.5-4.1-8.7 1.9-17.7 2-26.9 0.7-9.1-1.4-18.4-4-27.8-7.3-4.7-1.7-9.4-3.5-14.1-5.3-2.3-1-4.7-1.9-7-2.9q-3.5-1.6-7-3.1c-9.4-4.1-18.7-8.3-28-11.9-13.5-5.9-28.3-5.8-42.7-8.1-7.2-1.1-14.2-2.9-20.8-6.3-3.4-1.7-6.5-3.9-9.5-6.7-3.1-2.7-5.9-6-8.6-10-13.2-3.3-24.4-8.7-34.9-14.9-10.3-6.3-20-13.3-30.5-19.5-2.5 1.2-6 1.1-10 0.2-2-0.5-4.1-1.2-6.3-1.9-2.2-0.8-4.4-1.7-6.7-2.7-18.2 1.7-32.8-3.9-40.8-20.6q-14.4-8.7-28.7-17.3l-11.9-4.3c-2.9-1.2-5.9-2.4-8.8-3.6l-8.7-3.8q-8.7-3.9-17.3-8c-11.4-5.4-22.8-11-33.9-17.1q-16.8-9.1-33.2-18.7c-10.9-6.5-21.7-13.2-32.4-20.1-5.4-3.4-10.7-6.8-16-10.4l-15.7-10.7-15.7-10.9c-5.2-3.7-10.4-7.3-15.5-11.1l-30.6-22.7-7.6-5.7-7.5-5.9-15.1-11.6c-4.9-3.9-7-10.5-10.4-15.8l-6-4.1-6-4.2-11.9-8.4q-11.9-8.4-23.8-16.8c-9.8-1.4-18.2-6.7-26-13.3-3.8-3.3-7.6-7-11.3-10.7-3.7-3.8-7.4-7.5-11.1-11.2q-12.6-10.4-25.2-20.7c-4.2-3.5-8.4-6.9-12.6-10.4l-12.4-10.7c-11.3-7.6-22.2-15.4-31.4-24.3-9.1-9-16.8-18.9-21.9-29.9q-4.7-4.2-9.3-8.5l-9.2-8.6c-8.5-1.4-15.2-6.5-18.9-16.9-5.6-4.7-11.3-9.4-16.8-14.3-9.7 0-20.7-8.4-28.9-21.1q-3.5-5.2-6.8-10.3-3.3-5.1-6.7-10.1c-4.5-6.5-9.2-12.8-14.4-18.8-10.4-12-22.1-23.5-38.1-34.3-6-4.1-10.5-8.7-14.1-13.8-3.5-5.1-6.2-10.6-8.5-16.2-4.7-11.4-8.2-23.4-15.4-35-5.3-9-11.2-18.1-17.1-27.4q-4.5-6.9-8.9-13.9c-2.9-4.6-5.6-9.4-8.3-14.1-5.4-9.4-10.4-18.7-14.5-27.9q-1.5-3.5-2.9-6.9-1.3-3.4-2.4-6.8-2.2-6.8-3.5-13.3c-1.3-6.8-3.8-12.3-7.7-17.7-3.9-5.4-9.2-10.7-15.8-17.3-6.4-6.2-12.7-12.8-18.8-19.6q-4.6-5.2-8.9-10.6c-2.8-3.6-5.4-7.4-8-11.2-5-7.6-9.4-15.6-12.9-23.8q-2.6-6.1-4.4-12.5-1.8-6.4-2.6-13c-7.7-12.4-15.5-24.7-23.1-37.2l-22.3-37.8c-45.7-53.3-74.6-115.4-88.8-180.9q-5.2-7.7-8.8-15.8c-2.4-5.4-4.5-10.9-6.4-16.5-3.8-11.2-7.2-22.4-11.8-33.3-11.9-21.5-23-43.3-32.1-65.8q-3.5-8.4-6.9-16.8c-2.2-5.6-4.4-11.2-6.3-16.9q-6-17.1-11.3-34.3c-3.6-11.4-6.6-23-9.6-34.6q-2.2-8.7-4.2-17.4c-1.4-5.8-2.7-11.6-3.9-17.4-4.6-23.4-8.9-46.7-11.8-70.2-4.3-8.5-9.1-16.5-13.1-25.2-4-8.8-7.1-18.5-8.3-30.3q-2.8-8.1-5.2-16.3c-0.8-2.7-1.7-5.4-2.4-8.2q-1.1-4.1-2.1-8.2c-2.6-11.1-4.9-22.2-7.1-33.4-2.3-11.2-3.9-22.4-5.9-33.7-1.8-11.2-3.8-22.4-5.9-33.5-3.9-22.6-4.7-40.1 7.1-39.9-1.1-6.7-2.2-13.4-3-20.1-6-13.9-11.2-28.3-15.3-42.5-3.9-14.2-6.7-28.2-8.5-41.5q-0.7-5-1.1-9.8-0.3-2.5-0.5-4.8-0.1-2.4-0.2-4.7c-0.2-6.2-0.2-12.1 0.1-17.7 0.6-11.1 2.3-20.9 5.1-28.8 0-0.2-0.1-0.4-0.2-0.7q0.1 0 0.3 0-0.1-4.3-0.3-8.3-0.3-4.3-0.9-8.2c-0.7-5.2-1.7-10-3-14.6-2.6-9.1-6.1-17.1-9.8-25.2-5.7-12.3-6.4-24.8 2.4-29.5q0.6-11.9 1.3-23.9c-0.7-12.3-1.2-24.7-1.7-37l-0.8-18.5c-0.3-6.2-0.3-12.3-0.5-18.5-4.1-11.5-6.1-23.3-6.6-35.2-0.4-5.9-0.2-11.9 0.2-17.9 0.4-6 1-12 1.8-18.1 0.7-6 1.6-12 2.4-18.1 0.5-3 0.8-6.1 1.3-9.1q0.7-4.5 1.4-9.1c1.8-12.2 3.2-24.3 3.3-36.6-0.1-8.3 0.3-16.7 0.5-25.1q0.3-12.6 0.8-25.4 0.3-6.3 0.6-12.7 0.5-6.4 1-12.8c0.6-8.5 1.4-17 2.4-25.5 1.7-16.9 4.7-33.8 8.3-50.4q1.4-6.2 3-12.3c1-4.1 2.1-8.2 3.3-12.2 2.5-8.1 5.2-16.1 8.2-23.9 5.4 8.4 7.1 20.6 7.8 34.1 0.2 4.3 0.4 8.8 0.5 13.3-0.1-4.5-0.3-9-0.5-13.3-0.7-13.5-2.4-25.7-7.7-34.1 0.3-5 0.4-9.9 0.5-14.8 0.1-4.9 0.1-9.8 0.4-14.7 0.7-9.9 1.9-19.9 5.1-30.4 4.5-16.5 11.3-31.3 16.9-47.1 2.9-7.9 5.3-16 7.5-24.7 2.1-8.6 3.7-17.7 4.4-27.7 0.4-6 3.6-12.1 7.6-17.4 4-5.3 9.1-9.8 13-12.7-2.9 11.4-1.5 20.6-0.8 30.1 0.4 5.2 0.6 10.4 0 16.2 0.6-5.8 0.4-11 0-16.2-0.7-9.5-2.1-18.7 0.8-30.1 5.1-9.8 10.4-18.4 16.4-20.5 1.5-6.2 3.3-12.1 5.4-17.8 2.1-5.7 4.4-11.1 6.9-16.4 4.9-10.6 10.1-20.7 15.2-31.1 2.3-10.7 3.6-21.3 5.4-32 1-5.3 2.1-10.7 3.5-16.1 1.4-5.4 3.4-10.8 5.8-16.4 4.5-12.8 8.9-25.6 13.6-38.4l14.4-38.2q2.3-4 4.5-8 2.3-4 4.5-8.1 4.4-8.1 8.4-16.4c5.5-11.1 10.5-22.5 15.7-33.9 5.1-11.3 10.1-22.9 15.1-34.3 5.2-11.5 10.5-22.8 16-34 2.3-4.6 4.8-8.7 7.6-12.5 2.8-3.8 5.7-7.3 8.6-11 5.8-7.3 11.3-14.9 15.1-25.6 0-2.7 0-6.5 0-9.6 0.1-3.2 0.2-5.7 0.4-5.9 9.9-10.1 18-21 24.9-32.3 3.4-5.7 6.7-11.5 9.8-17.3 3.1-5.9 6-11.9 8.8-17.9 2.8-6 5.4-12.1 8.1-18.2q4-9.1 8.1-18.2c2.8-6 5.6-12.1 8.5-18.1 1.4-2.9 2.9-5.9 4.4-8.8q2.4-4.4 4.9-8.7c6.1-6.1 12-12.6 17.7-19.4q4.3-5.1 8.5-10.3c2.7-3.5 5.6-7 8.3-10.6 5.5-7.2 10.9-14.6 16.2-22.1 5.2-7.6 10.5-15.3 15.8-23-0.8-7.5 2.9-14.6 11.7-21.2q3.5-4.8 7-9.6 3.6-4.6 7.1-9.3l14.7-19.5c4.9-6.5 9.8-13 14.9-19.4 7-13 15-24.3 23.5-34.6 8.8-10.1 18.2-19.2 27.7-27.9 9.4-8.8 19.5-16.8 29.1-25.4 9.7-8.5 19.1-17.3 28.4-27q5.5-8.9 11.5-17.6 3-4.3 6.1-8.6l3.1-4.3 3.3-4.2c8.7-11 17.9-21.9 27.5-32.5 9.6-10.5 19.8-20.7 29.9-30.9l7.7-7.6 7.9-7.4 15.8-14.7c36.7-37.1 75.8-71 118.6-98.2l12.1-9.8 12.2-9.6 24.7-19.1c2.8-2.4 5.6-4.7 8.5-7q4.2-3.5 8.5-7c14.6-7.4 29-15 43.8-22q2.6-3.4 6.1-6.7c8.2-11.3 19.1-17.5 30.6-22.7 11.4-5.3 23-10.1 32.4-19.3 3-2.5 6.1-4.9 9.1-7.4-0.7-6.8 8.4-16.9 17.9-20.2 15.2-5.3 29.7-11.6 43.4-19.1q5.1-2.8 10.1-5.7l10-6c6.7-4 13.2-8.2 19.7-12.5 6.5-4.3 12.9-8.7 19.3-13.2l19.4-13.1c6.4-4.3 12.9-8.7 19.5-12.9 6.5-4.2 13.3-8.1 20-12 20.4-11.4 29.8-12.8 34.7-9.8 4.9 2.9 5.2 9.8 7.5 15 6.9-5.3 20.1-13.2 19.9-15.6-3.2-32.2 36.8-40.1 74.9-47.6q14.1-7.9 28.3-15.7c5.7-7.1 18.9-16.7 24.9-13.2 6.4 3.8 16.9 3.5 27.5 3.1 10.5-0.3 21.1-0.5 27.4 2.9 0 0 0.1-0.1 0.1-0.1q8.9-2.8 17.2-4.8c5.6-1.3 11-2.5 16.3-3.2 10.6-1.6 20.6-2.4 30.3-2.7q7.3-0.3 14.4-0.3c4.7 0 9.5 0.2 14.2 0.3 9.4 0.4 18.7 0.7 28.2 0.9l11.1-3.6c3.7-1.2 7.5-2.3 11.2-3.4l22.4-6.7 11.2-3.3 5.6-1.6 5.7-1.6 22.5-6.1c4.8-3.1 9.1-5.1 13.3-6.4 4.1-1.3 8-1.8 11.8-1.8 7.6 0 14.5 1.6 21.8 2.1l14.9-3.2c4.9-1 9.8-2.1 14.8-3l29.8-5.7 14.9-2.8 14.9-2.5 29.9-4.8c6.6-1.3 13.2-2.3 19.8-3.5q9.8-1.7 19.7-3.5c6.6-1.2 13.2-2.5 19.8-3.5q9.9-1.6 19.9-2.9c6.6-0.9 13.1-1.7 19.7-2.4 3.3-0.3 6.5-0.6 9.8-0.8 3.3-0.2 6.4-0.4 9.7-0.5 13.2-0.4 26.8-0.1 38.8 1.3q0 0 0-0.1c16-1.2 31.2-2.5 46.7-3.8l7.3-0.4 7.1-0.2 14-0.5q14.1-0.4 28.2-0.9c15.6-1 31.1-1 46.6-0.9 7.7 0 15.5 0.5 23.2 0.8l23.2 1.1 11.5 0.6c3.9 0.1 7.7 0.4 11.6 0.6q11.6 0.7 23.2 1.1c7.7 0.2 15.5 0.2 23.3 0.3 7.8 0.1 15.6 0 23.5-0.3q12.2 0.8 24.3 1.6 12.2 1 24.4 2.1c7.7 0.3 15.8 0.3 23.8 0.4 3.9 0 7.9 0.3 11.8 0.5 3.8 0.3 7.6 0.7 11.2 1.2 14.6 2 27 6.4 33.4 17q18.8 2 37.6 4c10.4-2.7 21.1-2.9 31.9-2 10.8 0.9 21.7 3 32.6 5.4 10.9 2.5 21.8 5.3 32.6 7.3q8.1 1.4 16.2 2.3c5.3 0.6 10.7 0.9 16 0.7 11.9-0.9 22.6 0 32.6 2 10 2.2 19.2 5.6 28.2 9.4 4.4 1.9 8.8 3.9 13.2 5.9l6.5 3c2.2 1.1 4.3 2.1 6.5 3.2 8.8 4.1 17.7 7.9 27.2 10.8 5.5 1.2 11.2 2.3 16.7 3.5l16.6 3.8c11.3-0.1 22.5 0.7 33.3 3.3 10.8 2.8 21.4 7.2 31.4 13.8 4.1 0.4 8.3 0.9 12.3 1.5 4.1 0.7 8 1.6 11.8 2.7 7.6 2.4 14.4 5.9 20 11.7 6.6 3.3 13.2 6.4 19.7 9.8 9.9 1.6 19.8 3.9 29.4 7 4.8 1.6 9.6 3.2 14.3 5.3q7 3.1 13.8 6.9 12.5 2.5 24.7 6 3 0.9 6.1 1.8 3 0.9 6 2 6 2.1 11.9 4.4c7.9 3 15.7 6.5 23.4 10.2 3.9 1.8 7.6 3.8 11.4 5.9q5.6 3.1 11.1 6.5 7.7 2.7 15.1 5.8c4.9 2.2 9.9 4.2 14.7 6.6 9.6 4.7 18.9 9.7 28.2 14.8 4.7 2.5 9.3 5 13.9 7.7q6.9 4 13.7 8c9.2 5.3 18.5 10.4 27.9 15.4 10.1 4 19.7 8.4 29.1 13.2 4.7 2.4 9.3 4.9 13.8 7.5q6.7 4 13.2 8.2c8.6 5.6 17 11.5 25.2 17.6 8.1 6.2 15.8 12.7 23.5 19.2v0.1c7.9 1.5 15.9 3.4 23.6 6 7.7 2.7 15.4 5.9 22.8 9.7q5.6 2.8 11.1 6.2c3.6 2.2 7.2 4.6 10.6 7.2 7 5.3 13.6 11.3 19.9 18.2 3.9 4.2 8.1 8.3 12.5 12.2 4.4 4 9 7.9 13.7 11.8 4.7 3.8 9.6 7.5 14.5 11.3 4.9 3.7 9.9 7.3 14.7 11.1 9.8 7.6 19.4 15.3 28.3 23.3 4.4 3.9 8.5 8.2 12.4 12.5q5.8 6.4 10.7 13.3c15.1 11.3 29.8 23.3 44.6 35.1 7.4 5.8 14.6 11.9 21.9 18l21.7 18.3c10 8 18.2 16.6 22.9 26.2q4.1 2.6 8.1 5.3l4 2.6 4 2.7c5.3 3.6 10.6 7.3 15.7 11.2 5.1 4 10.1 8.2 14.8 12.8q3.6 3.5 6.8 7.4 3.3 3.9 6.3 8.3c4 5.5 9 10 14.5 14.3q4.1 3.2 8.4 6.2 4.2 3 8.3 6.2c11.1 8.4 21.2 17.7 24.9 32l21.4 25.3c3.5 4.3 7.1 8.5 10.5 12.8l10.4 12.9q5.9 6.3 11.9 12.7c4 4.2 8 8.4 11.8 12.8q8 8.9 15.9 17.9c6 2.6 10.8 6.7 14.8 11.6 4 5 7.4 10.8 10.5 16.8 8.4 9.9 16.9 19.7 25 29.8 4.7 6.5 10.2 12.8 15.8 19.1 2.7 3.2 5.6 6.3 8.3 9.5 2.7 3.2 5.3 6.4 7.8 9.6 5 6.5 9.5 13.2 12.8 20.2 1.6 3.5 2.9 7 3.9 10.7 0.9 3.7 1.5 7.5 1.6 11.4q5.2 9.1 10.4 18.2c30.6 43.6 59 88.7 84.6 135.3 25.3 46.6 47.7 94.7 66.6 143.9 7.1 8.3 11.2 18 13.2 28.6 5.4 8.2 10.2 16.8 14.2 25.6 4 8.9 7.2 18.1 8.8 28 9.1 17.6 10.7 30.6 4.4 38.7 3.3 8.4 6.4 16.9 9.5 25.3 5.9 6.2 10 13.5 13 21.3 2.9 7.9 4.7 16.2 6.5 24.7 0.9 4.2 1.8 8.4 2.7 12.6 1 4.1 2.1 8.2 3.2 12.3 2.3 8.1 5.5 15.8 10.4 22.6 2.1 4.3 3.7 8.5 4.7 12.7q0.9 3.1 1.5 6.2 0.4 3.1 0.8 6.2c1 8.2 1.4 16.3 3.3 24.7 8 14.9 15.9 29.7 19.5 48.7 1.7 4.7 3.1 9.2 4.1 13.4 0.9 4.1 1.5 7.9 1.5 11.2-0.1 6.6-2.3 11.2-7.7 12.8l5.6 19.5c1.8 5.6 3.3 11.4 4.9 17.1l4.9 17.2c1.5 5.8 3.1 11.5 4.6 17.3 1.5 5.7 2.9 11.5 4.3 17.3 2.7 11.5 5.3 23 7.6 34.6 2.1 11.5 3.9 23.1 5.5 34.6 1.6 11.4 2.5 22.9 3.1 34.2 0.3 5.7 0.5 11.4 0.5 17 0.1 2.8 0.1 5.6 0.1 8.5 0 2.7-0.2 5.6-0.3 8.4-1.1 22.3-4 44.1-10.3 65.1-3.4 11.6-3.3 21.6-1.9 31.2 1.4 9.6 4.4 18.8 7.2 28.5 1.8 6.5 3.3 12.6 4.1 18.2 0.8 5.7 1 10.7 0.4 15.1-1 8.6-5.1 14.4-13.4 15.9-3.2 19.3-7.3 38.5-13.2 68.1q-2.7-15-5-29.4c-1.5-9.7-2.7-19.2-4.1-28.6-1.4-9.3-2.6-18.6-3.6-27.8q-0.7-6.8-1.5-13.7-0.8-6.8-1.4-13.5-1.3-13.6-2.1-27l-0.3-6.7-0.4-6.7q-0.4-6.7-0.6-13.4-0.5-13.3-0.3-26.8c0-9 0.1-18 0.4-27.1-1.4-7.9-3.1-15.9-3.8-23.7-0.8-7.6-0.6-15 2.2-21.8q-0.9-7.8-1.8-15.6c-0.6-5.2-1.2-10.4-2-15.6-11.3-17.8-15.9-38.9-16.5-63.2q-0.1-10.9-0.3-21.9c-2.2-9-5.3-17.8-7.4-26.7-1.1-4.5-2-9-2.5-13.5-0.5-4.5-0.6-9.1-0.3-13.7-4.1-9.5-6.7-18.7-8-27.7-0.6-4.6-0.9-9.1-1-13.5-0.1-4.5 0-8.9 0.5-13.2-3.5-14-9.4-20.1-16.3-26.2-4.6-4.1-7.3-8.7-8.2-13.4-0.8-4.7 0.2-9.5 2.6-13.8q-3.1-12.3-6.3-24.6-3.4-12.2-6.8-24.4c-2.1-7.1-4.4-14.1-7-21.2-2.6-6.9-5.4-13.8-8-20.8-2.6-7-5-14-7.1-21.1-2.2-7-4.1-14.2-5.4-21.5l-5.2-15.5c-1.7-5.2-3.5-10.4-5.4-15.5l-11.2-30.8-3.4-7.5-3.6-7.4-7.2-14.8c-4.7-9.8-9.4-19.7-14.5-29.4l-15.1-29.1c-5.2-9.7-10.5-19.2-15.7-28.8l-4.7-10.1-2.4-5.1-2.4-5-9.9-19.9c-2.2-4.5-4.5-8.9-7-13.3-2.4-4.4-5.1-8.7-7.8-13-5.3-8.5-10.8-17-16-25.6-2.5-4.3-5.3-8.5-7.7-12.9-2.4-4.3-4.7-8.7-6.9-13.2-4.2-8.8-7.6-18.2-10-27.8-3.4-7.6-7.7-14.7-12.3-21.5-2.3-3.4-4.7-6.8-7.1-10.1-2.5-3.3-5-6.5-7.6-9.8-5-6.5-10-13.1-14.6-19.9-2.3-3.4-4.4-7-6.5-10.5-2.1-3.5-4.1-7.2-5.8-11-4.8-5.3-10.1-10.2-15.4-15-2.6-2.4-5.2-4.8-7.8-7.2-2.7-2.4-5.3-4.8-7.8-7.3-5.1-5.1-9.7-10.5-13.6-16.8-2-3.1-3.8-6.5-5.3-10.2-1.5-3.6-2.9-7.4-3.9-11.6q-9.3-14.1-18.7-28.2c-11.1-8.9-19.8-20.2-28.3-31.9-4.1-5.9-8.5-11.6-13.1-17.1-4.5-5.6-9.2-10.8-14.5-15.6-5.3-6.1-10.9-12-16.4-17.9q-11-11.8-22-23.6c-7.2-3-12.3-8-14.8-15.7l-8.3-11.1c-2.7-3.6-5.5-7.4-8.3-11l-17.2-21.7c-7.1-1.1-12.9-4.7-16.7-14l-19.7-18.6c-3.3-3.1-6.5-6.2-9.9-9.2l-10-9.1c0.8-0.8 1.6-1.6 2.4-2.4q-1.2 1.2-2.4 2.4c-4.9-2.5-10.1-5.3-15.1-8.4-2.5-1.5-5.1-3.1-7.5-4.8q-1.9-1.2-3.7-2.5c-1.2-0.9-2.4-1.7-3.5-2.6-9.5-7-17.4-14.9-21.6-23.8q-2.1-4.5-4.5-8.7c-1.6-2.8-3.4-5.5-5.2-8-3.6-5.1-7.5-9.9-11.6-14.3q-6.2-6.6-13.1-12.4c-4.6-3.9-9.4-7.4-14.3-10.7-5-3.4-10-6.6-15.1-9.7-5.1-3.1-10.2-6.2-15.5-9.1-10.4-5.8-20.9-11.6-31-18-3.5-2.8-7.1-5.4-10.6-8l-10.8-8c-7.2-5.3-14.4-10.6-21.6-15.8-21.1-5.7-38.5-18.3-56.3-31.2q-6.6-5-13.2-10l-6.7-4.9c-2.2-1.7-4.5-3.2-6.8-4.8-9.1-6.2-18.5-12.1-28.4-16.8-4.4-2.1-8.9-4.1-13.4-6.3q-6.8-3.2-13.5-6.6c-9-4.5-17.9-9.5-26.7-14.4-8.8-5.1-17.5-10.5-25.7-16.3-2.1-1.5-4.1-3-6.2-4.5q-3-2.2-6-4.5-6.1-4.6-11.7-9.6c-7.6-4.4-15.2-8.9-22.8-13.2q-11.5-6.3-23.1-12.7l-10.3-4.2-5.1-2.1-5.2-2-20.8-8c-6.9-2.6-13.8-5.3-20.8-7.8l-20.9-7.4c-4.3-1.8-8.2-3.9-12-6.2-3.8-2.2-7.5-4.7-11.3-6.9-7.6-4.6-15.4-8.9-24.9-11.1-14.6 1.6-28.3-5.6-42-13.4-7.2-3.3-14.4-6.8-21.7-9.9-9.6-1.4-18.9-3.4-25.9-10.1-3.3-1.1-6.6-2.1-10-3.2-3.3-1.1-6.7-2-10-3.1q-10.1-3-20.2-5.9c-2.1-2.9-6.8-4.7-12.4-6.3-5.6-1.6-12.1-2.6-17.8-4-5.6-1.4-10.5-3-13.2-5.6 2.7 2.6 7.6 4.2 13.2 5.6 5.7 1.4 12.2 2.4 17.8 4 5.6 1.6 10.3 3.5 12.4 6.3-6.4 0.1-12.9-0.5-19.5-1.5-6.6-1-13.2-2.4-19.8-4.2-6.5-1.7-13-3.8-19.2-5.9q-4.7-1.7-9.3-3.2-4.5-1.7-8.8-3.2-8.8-3.1-17.6-6.1l-8.8-3-4.5-1.4-4.4-1.3c-11.9-3.5-23.9-6.8-36-10-6-1.7-12.1-3-18.1-4.5-6.1-1.4-12.2-2.8-18.3-4.1-6.1-1.4-12.2-2.9-18.3-4.1l-18.4-3.7c-24.4-5.2-49.1-9.4-73.5-14.5-12.3-2.3-24.5-4.7-36.7-7.4l-9.1-2.1-9.1-1.9q-9.2-2-18.3-4.2-6.5-1.6-13.5-2.8-3.4-0.6-7-1.1-3.5-0.4-7.1-0.8c-9.7-0.9-19.6-1.4-29.6-1.7-5.1 0-10.1-0.2-15.2 0q-7.5 0.1-15.1 0.4c-10 0.4-19.9 0.7-29.6 1.1-14.2 0.8-28.3 1-42.2 0.7q-10.4-0.2-20.8-0.4-10.3-0.3-20.6-0.9-5.1-0.3-10.3-0.6l-5.1-0.3-5.1-0.3q-10.3-0.6-20.5-1.3c-6.9-0.5-13.7-1-20.6-1.5-3.4-0.3-6.8-0.5-10.2-0.7l-10.4-0.6c-11.5-2-23-4.2-34.6-6.1q-17.4-2.6-34.9-5.3c-5.1 1.3-10.2 2.5-15.4 3.8q-7.7 2.1-15.4 4.1c-10.3 2.6-20.6 5.1-31.1 7.5-10.4 2.6-20.9 5.1-31.7 7.2-5.3 1.1-10.7 2.1-16.2 3q-8.1 1.6-16.5 3c-8.8 3.7-16.7 4.3-24.3 3.9-1.9-0.1-3.7-0.2-5.6-0.4q-2.8-0.3-5.5-0.6c-3.7-0.4-7.4-0.8-11.2-0.9q-9.3 2.4-18.6 4.9c-6.2 1.6-12.4 3.2-18.6 4.9-12.3 3.3-24.6 6.3-36.8 8.6q-4.6 0.8-9.1 1.6-4.6 0.8-9.2 1.5c-6.1 0.8-12.1 1.4-18.3 1.7-6.1 0.3-12.2 0.2-18.3 0q-9.1-0.3-18.4-1.7c-7.7-1.2-15.3 0.1-22.6 2.5-3.7 1.2-7.3 2.8-10.8 4.6-3.5 1.7-6.9 3.6-10.3 5.5-9.4 5.4-19.2 10.3-29.6 14.5-10.4 4.4-21.5 8-33.6 10.3-7.8 3.3-15.5 6.7-23.4 9.8q-11.8 4.7-23.9 8.7l-6 2-6 2q-6.1 1.9-12.2 3.8-12.1 3.6-24.6 6.7c-7.1 4.7-14.5 9-22.5 12.6-7.9 3.6-16.3 6.6-24.9 9.4-10.6 7-20.9 13.9-31.4 18.2q-3.9 1.6-7.9 2.6-3.9 1.2-8 1.6c-5.3 0.6-10.9 0.2-16.6-1.6-6.2-1.8-13.1-0.4-20 2.6-3.4 1.5-6.9 3.5-10.2 5.5-3.4 2.2-6.8 4.4-10 6.6-7.4 5-14.8 9.7-22.3 12.8-7.4 3.2-14.8 4.9-22.4 3.8-9.1 4-18.2 7.8-27.2 11.9-11.1 11.8-17.6 10.2-23.3 6.3h-0.2c-7.3 3.2-13.9 6.9-20 10.9-6.1 4.1-11.8 8.5-17.3 13-5.5 4.5-10.9 9-16.4 13.5-5.4 4.6-10.9 9.1-16.9 13.3-18.8 18.6-43.9 27.2-65.8 40.9-12.1 12.4-22.4 18.8-31.7 21.3-4.7 1.2-9 1.7-13.2 1.4-4.1-0.3-8.2-1.2-12.1-2.4-8.4 7-17.5 13-26.8 18.7-9.2 5.8-18.6 11.3-28 17l-7 4.3-3.5 2.2-3.3 2.3q-6.8 4.6-13.2 9.7-6.5 5.1-12.4 10.8c-3.9 3.8-7.7 7.9-11.1 12.4l-1 2.1c0 0-0.6 0.4-1.2 0.9-0.3 0.2-0.6 0.4-0.8 0.6-0.2 0.2-0.4 0.3-0.4 0.3-4.3 11.1-11.6 19.9-20.8 27.6-9 7.7-19.7 14.4-30.8 20.8l-8.6 7.2-8.4 7.3-16.8 14.6-8.4 7.4c-2.8 2.4-5.5 5-8.3 7.5l-16.5 15c-0.4 5.1-3.5 9.5-7.6 13.7-4.1 4.3-9.1 8.3-13.3 12.5-6.7 6.7-13.5 13.4-20 20.3-6.4 6.9-12.7 13.9-18.6 21-12 14.1-22.1 29.2-29.9 44.8-1.9 4-4.2 7.4-6.7 10.4-2.5 3.1-5.2 5.7-8.2 8.1-5.8 4.9-12.1 9-17.7 14.2q-3.2 4.1-6.4 8.1-3.2 3.9-6.4 7.8-6.5 7.6-13.4 14.4c-4.5 4.5-9.3 8.7-14.2 12.7q-7.2 6.1-14.9 11.2-10.4 8.6-20.9 17.2l-20.6 17.6q-3.6 6.2-7.6 11.7c-1.3 1.8-2.7 3.6-4 5.3q-2.1 2.7-4.2 5.2c-5.7 6.6-12 12.5-18.7 17.8-3.3 8-7.1 14.1-11 19.1-4 5-8.3 8.7-12.7 12-4.4 3.3-8.9 6-13.5 9-2.2 1.4-4.5 2.9-6.7 4.6-2.2 1.6-4.3 3.4-6.4 5.4-2.1 9.4-4.5 18.7-7.2 28.1-1.4 4.7-3 9.3-4.6 14q-2.3 7-5.2 14.1c-3.8 9.4-8.5 18.8-14.1 28.3-5.4 9.5-11.9 19.1-19.8 28.7-5.4 7.4-10 15.5-14.6 23.6-4.5 8.2-8.8 16.5-13.2 24.7-4.4 8.2-8.7 16.4-13.6 24.2-2.4 3.9-4.9 7.7-7.6 11.4q-2.1 2.7-4.2 5.4-2.1 2.7-4.3 5.3c-3.9 11.1-9 21.2-14.7 30.8-2.9 4.7-5.7 9.5-8.7 14.2-3 4.6-6 9.2-9.2 13.8 0.5 5 0.4 10.1-0.2 15.3-0.3 2.6-0.7 5.2-1.2 7.9q-0.7 3.9-1.6 7.9c-2.6 10.7-6.4 21.7-10.7 32.7q-1.6 4.1-3.1 8.3-1.6 4.2-3.1 8.3c-2.1 5.6-4.1 11.2-6 16.7-1.9 5.5-3.7 11-5.1 16.5-1.4 5.5-2.5 10.9-3.2 16.2 2.3 4.6 6.2 7.7 6.7 14 0.7 8.3 1.8 15 3.4 19.7 1.7 4.8 3.9 7.6 6.7 8 5.5 0.8 13.8-7.6 25.6-28.3 3.2-5.7 6.6-9.8 9.9-12.3 3.4-2.4 6.8-3.2 10-2.1 5-6.3 8.5-13.1 11.3-20.2 2.8-7.1 4.7-14.6 6.9-22 2.2-7.4 4.3-14.9 7-22 2.8-7.2 6.1-14.1 11-20.3 1.8-8.7 4.4-17.1 7.5-25.2q2.3-6.1 5-11.9 2.8-5.8 5.9-11.4c4.1-7.5 8.7-14.8 13.4-22l3.5-5.3c1.2-1.8 2.5-3.5 3.8-5.3l7.6-10.3c3.5-13.9 8.7-26.8 15.3-38.8 3.3-6 6.8-11.9 10.5-17.6q2.8-4.3 5.7-8.5c2-2.8 4-5.5 6-8.3 4.1-5.5 8.2-10.9 12.4-16.3q3.1-4.1 6.2-8.1l3-4.1 3.2-4.1c8.3-10.8 16.3-22 23.4-33.9 6.3-10.2 12.8-20.1 19.2-29.9q2.4-3.7 4.7-7.3 2.5-3.6 4.9-7.2c3.3-4.9 6.5-9.7 9.6-14.5 3.1-4.9 6.1-9.8 9-14.9 3-5 6-10 8.8-15.2q4.2-7.7 8-15.9c2.5-5.5 4.8-11.1 7.2-16.9 2.9-7.2 7.2-14.9 12.6-22.7 2.6-3.9 5.5-8 8.6-11.9 3.2-4 6.5-8 9.9-12 3.5-4 7-8.1 10.6-12.1 3.6-4.1 7.1-8.2 10.8-12.1 7.4-7.9 14.6-15.8 21.1-23.5 4.9-7.9 10.2-15.5 15.5-22.6 5.3-7.2 10.9-13.9 16.8-19.9 12-11.7 25.4-20.2 41.1-23 9.7-1.6 20.6-8.5 29.7-22.5q2.6-3.9 5.2-7.4c1.9-2.3 3.8-4.4 5.7-6.4q5.8-6 12-10.5 6.2-4.6 12.8-7.7 3.3-1.6 6.7-2.8 3.4-1.2 6.9-2.1c8.2-6.7 16.1-15.7 25.2-17q1.3-4.2 3.1-7.8 1.9-3.6 4.2-6.6c3.1-4.2 6.8-7.7 10.8-10.8 4-3.1 8.4-5.8 13-8.3 2.3-1.2 4.6-2.4 7-3.5l7.2-3.4c5.9-11.3 14.3-18.1 23.4-23.5 9.1-5.3 19-9 27.9-14.7 40.2-19.5 79.4-41.3 117.6-71 89.1-65 187-117.7 289.9-155.2-47.1 24.1-92.6 50.8-137.8 77.9-45.1 27.1-89.9 54.6-136.2 81-9.4 6-18.6 12.8-27.8 19.6l-6.9 5.1q-3.4 2.6-6.8 5.3-6.8 5.2-13.6 10.2c-4.6 3.3-9.2 6.5-13.9 9.5-4.6 3-9.3 6-14.1 8.6-9.6 5.2-19.6 9.3-30.2 11.9-1.1 9.2-6.1 16.3-13.2 22.7-3.5 3.2-7.6 6.2-12 9.3q-6.6 4.7-13.8 9.8c-47.2 33.8-91.9 72.3-135.1 111.9-10 12.2-18.8 24.8-27.8 37.6-4.5 6.3-9.2 12.6-14.3 18.6-2.6 3.1-5.1 6.2-7.9 9.1-2.7 3.1-5.5 6-8.5 8.9-44.1 36.3-79.6 81.6-109 131.2q-4.5 7.6-9.1 15-4.6 7.3-9.3 14.5-9.3 14.6-19.4 28.5-2.6 3.5-5.1 7l-5.1 7q-5.1 6.9-10.5 13.8-2.7 3.4-5.5 6.8l-2.7 3.4-2.7 3.4q-5.5 6.8-11.3 13.6c-4.9 5.9-9.6 12.2-14.1 18.8-4.4 6.8-8.6 13.8-12.8 21q-3.1 5.4-6.2 10.8l-3 5.5-3 5.5c-3.9 7.4-7.9 14.7-11.9 21.8-60.8 107.5-110.3 221.3-148.8 338.9-4.8 14.9-6.9 30.1-9.8 45.1-2.5 15.1-5.7 30-12.8 44.5q-4.2 12.7-7.7 25.6c-2.3 8.6-4.6 17.2-6.3 25.9q-2.7 13.1-5.1 26.2c-0.7 4.3-1.6 8.7-2.2 13.1l-2 13.1-3.7 26.3c-0.7 4.4-1.1 8.8-1.7 13.2l-1.6 13.1c-1.1 8.9-2.4 17.6-3.5 26.4q-1.7 13.1-3.7 26.3c-2.6 15.1-1.7 31.6-9.7 43.4q-1.5 5.6-2.6 11.1c-0.8 3.7-1.5 7.4-1.9 11.1-0.9 7.5-1.5 15-1.9 22.5-0.3 7.4-0.6 14.9-0.7 22.4 0 7.5 0 15-0.2 22.5 3.7 6.1 3.9 12.8 0 20.4-0.3 8.7-0.5 17.4-0.7 26.2-0.2 8.7-0.5 17.4-0.6 26.1q-1.3 15.8-2.7 31.5c-0.4 5.3-1 10.5-1.3 15.8l-0.9 15.8q-0.1 14.5-0.1 29l0.6 29 0.3 14.5c0.1 4.8 0.4 9.7 0.6 14.5l1.3 29c8.9 28.7 6.9 56.1 4.3 83.6 1.7 15.8 6.6 30.8 10.4 46.1 3.7 15.3 7.1 30.7 6 47.5q1.3 6.9 2.9 13.5 1.7 6.5 3.7 12.7 4 12.4 8.9 23.4c3.2 7.4 7 14.3 11 20.8q6 9.7 12.8 18.4 3.4 4.4 6.5 8.7c2.2 2.9 4.3 5.6 6.3 8.4q5.9 8.2 10.9 15.9c3.2 5.2 6.2 10.3 8.8 15.3 2.7 4.9 5.2 9.8 7.3 14.7 4.2 9.7 7.2 19.4 9.2 29.4 2.2 9.9 3.4 20.2 3.7 31.2q1.7 5.8 3.7 11.2 2.3 5.5 4.7 10.7c3.3 6.9 6.9 13.6 10.4 20.4q2.6 5 5.3 10.1 2.7 5.1 5.1 10.3c3.3 7 6.3 14.2 8.6 22.1 1.2 3 2.4 6 3.8 8.9l4 8.8 8.1 17.6c5.2 11.8 11 23.3 16.4 35 2.7 5.9 5.2 11.8 7.8 17.7q4 8.8 7.7 17.8 3.6 9 6.8 18.2c2.2 6.1 4.4 12.2 6.3 18.5q2.6 4.2 5.2 8.3c3.9 4.9 13.4 0.8 10.9 16 7.8 8.2 15.4 16.2 20.9 25.4 5.4 9.2 9 19.5 8.4 32.7-0.3 6.2 2.1 11.9 5.7 17 3.5 5.1 8.5 9.5 13 13.3 9.3 7.7 14.7 15.7 11 25.2 2.7 7.3 4.3 16.7 8.3 21.7q6 7.5 10.5 14.2c3 4.5 5.8 8.7 7.9 12.7 4.4 8 6.9 15.1 7.9 21.6q0.8 4.9 0.5 9.3-0.3 4.4-1.5 8.4c-1.7 5.3-4.5 10-8.3 14.5l2.4 3.5 1.3 3.7q5.9 7.7 11.7 15.3c9.1 5.3 15.6 13.6 21.4 22.6 2.9 4.6 5.6 9.3 8.5 13.8 3 4.5 6.1 8.9 9.5 12.8 3.4 2.3 6.8 4.7 10.2 7.1q1.6-1.9 4.8 1.2 4 1.6 7.9 3.7c2.6 1.3 5.2 2.8 7.8 4.3q7.7 4.8 15.2 11 7.5 6.3 14.7 14c4.9 5 9.9 10.5 14.7 16.4q7 8.5 14.1 16.8c4.9 5.5 9.8 11 14.7 16.4l14.8 16.2q7.6 8 15.1 16.1c5 5.3 9.9 10.7 14.8 16.2q7.5 8 14.7 16.3c4.8 5.5 9.5 11.1 14.1 16.8q7.1 8.4 13.7 17.2 5.6 5.4 11.1 10.8c3.6 3.6 7.5 7 11.2 10.5 10.3 4.6 20.6 8.8 30.3 14.9 9.9 6 19.3 14 27.6 26.5 7.9 6.6 15.9 13.1 23.8 19.6l11.9 9.8 12.1 9.4 12.1 9.5c4.1 3.2 8.1 6.4 12.2 9.4l24.7 18.4c24.2 12.2 44.7 29 64.1 47.9 10.6 8.5 21.6 16.6 32.4 24.8q7 1.7 13.6 4.2c4.4 1.7 8.7 3.4 12.9 5.5 8.4 4 16.4 8.8 24.2 14.2 7.8 5.2 15.6 10.8 23.2 16.5q5.7 4.4 11.4 8.8c3.8 2.9 7.7 5.6 11.6 8.4 9.6 2.5 18.5 7.1 26.8 13.7 21.5 5.3 19.4 12 15.3 18.8l8.4 12.3c2.7 4.1 5.5 8.2 8.4 12.2 11.9 1.8 23.1 6.9 34.3 12.6 11.2 5.6 22.4 11.6 33.9 15.6 7.7 0.6 15.5 1.2 23.4 2.1q11.7 1.4 23.5 3.6 5.8 1.1 11.8 2.2 5.9 1.1 11.9 2.4 11.9 2.7 23.9 5.9c8 2 16.1 4.1 24.3 6.5q6 1.7 12.2 3.6 3 0.9 6.1 1.8 3 1 6.1 1.9 12.4 3.6 24.8 7.6c4.2 1.3 8.3 2.7 12.5 4q6.3 2 12.6 3.9c9 2.8 18.2 4.8 27.5 6.4 9.3 1.5 18.6 2.6 27.9 4.2q7.3 2 14.6 3.9l14.8 3.5c51.2 13.9 102.9 25.4 155 34.6 14.7 3.4 27.2 1.9 39.6 0.3 12.5-1.7 24.8-3.7 39.4-0.9 6.8-0.1 13.6 0.1 20.4 0.9 6.8 0.8 13.5 2.1 20.3 3.8l6.7 0.5q3.4 0.3 6.7 0.4l13.5 0.7q13.5 0.7 27 1.3c4.4-5.4 13.2-7 24.3-6.5 3-7.4 6.9-14.6 19.3-18.9-4.2-7.6 2.7-12.9 7.9-18.9 2.2-10 25-14.6 19.9-26.5-4.8-4.1-11.1-6.6-17.9-8.3-3.5-0.8-7.1-1.6-10.8-2.3-3.7-0.7-7.5-1.3-11.2-1.9-5.1 1.9-10.5 2.6-16.1 2.7-2.8 0.1-5.6 0-8.5-0.2-2.8-0.3-5.7-0.6-8.5-1-11.5-1.5-23.2-3.2-34.2-1.6-9.5 1.2-23.1-1.2-26.1-9-2.6-6.6 5.9-10.6 14.4-13.6 6.5-2.2 13-3.4 19.6-4.1 6.6-0.7 13.2-0.7 20-0.1 6.7 0.5 13.5 1.6 20.3 3 6.9 1.2 13.8 2.8 20.7 4.5 4.2-0.7 8.2-1 12.1-0.9q3 0 5.8 0.4 2.9 0.3 5.7 0.7c7.6 1.3 14.9 3.5 22.2 5.7l8.4-1.1c2.8-0.4 5.6-0.7 8.4-1.1l16.8-2.6c11.1-1.7 22.2-3.3 33.2-5.4 11.1-2 22.1-3.9 33.1-6q16.4-3.3 32.8-6.6c2-0.4 3.9-0.7 5.5-1.2 1.7-0.4 3.2-1 4.5-1.6 2.6-1.2 4.2-2.9 4.4-5.5 0.2-3-1.2-5.4-3.9-7q-2-1.2-5-1.9c-1.9-0.4-4.2-0.7-6.8-0.8-8.8-0.3-16.8-1.2-23.6-3.2-3.4-1-6.4-2.3-9.1-4-2.6-1.6-4.9-3.8-6.7-6.3q-8.3-3.1-16.7-6.2c-5.6 0.5-11.2 0.8-16.8 0.9-5.6 0.1-11.2-0.2-16.8-0.4q-8.4-0.5-16.8-1.1l-8.4-0.7-8.4-0.8c-11.2-1.2-22.4-2.1-33.6-2.6-11.1-0.7-22.3-0.8-33.6 0.3-2.7 0.3-5.3 0.2-7.7-0.1q-3.8-0.4-7.2-1.4c-4.7-1.4-8.9-3.5-12.9-6.1-2.6-1.6-5.9-3.7-9.2-5.2-1.6-0.8-3.2-1.5-4.7-2-1.6-0.5-3-0.7-4.1-0.7-16.9 1-34.2 1.1-51.4-0.4q-6.5-0.5-12.9-1.1l-6.5-0.6-3.3-0.3-3.2-0.4c-8.6-1.2-17.3-2.3-25.9-3.5-8.7-1.1-17.2-2.7-25.8-4q-6.5-1-12.9-2c-4.3-0.7-8.6-1.2-12.9-1.9-17.1-2.9-34.2-4.8-51.1-6.5-6.8-0.6-13.7-1.4-20.4-2.4-6.8-1.1-13.4-2.6-19.9-4.1-6.5-1.6-12.8-3.5-19-5.5-6.1-2.1-11.9-4.5-17.5-7.1-6.4-3-13-5.5-19.6-7.6-6.6-2.3-13.3-4.3-19.9-6q-5.1-1.3-10.1-2.5c-3.4-0.8-6.7-1.5-10.1-2.3q-10-2.4-19.8-4.7-5-1.2-9.9-2.4-2.4-0.6-4.8-1.2-2.4-0.8-4.8-1.5c-6.4-1.9-12.6-4-18.7-6.5-12.1-4.7-23.3-11.2-33.3-19.7q10.8 0.9 21.9 2.5c3.7 0.6 7.5 1 11.3 1.6q5.6 0.9 11.3 1.9 5.7 0.9 11.4 2.1c3.9 0.7 7.7 1.6 11.6 2.3q11.6 2.2 23.3 4.8 5.9 1.4 11.8 2.7 5.9 1.3 11.9 2.5 11.9 2.7 23.7 5.4 12 2.5 23.9 5 6 1.2 11.9 2.4c4 0.9 8 1.5 11.9 2.2 50.8 9.3 103.1 19.6 155 23.1q13.2 0.9 26.4 1.8 13.3 0.6 26.5 1.4l6.6 0.4 3.3 0.2 3.3 0.1 13.3 0.5 13.2 0.4c4.4 0.2 8.8 0.4 13.2 0.4q13.2 0 26.3 0h6.6c2.2 0 4.4-0.1 6.5-0.2q6.6-0.2 13.1-0.5 6.5-0.3 13-0.6 3.3-0.1 6.5-0.3c2.2-0.1 4.3-0.3 6.5-0.5q12.9-1.1 25.6-2.5 3.2-0.4 6.3-0.5c2.1-0.1 4.2-0.3 6.2-0.4 4-0.1 8 0 11.9 0.1 7.9 0.4 15.5 1.4 23 2.3 7.6 0.8 15.1 1.7 22.8 2.2 7.6 0.6 15.4 0.9 23.4-0.1 30.4-2.9 54.9-7.8 70.7-24.2 3.8-3.1 7.6-6.2 11.3-9.3-2.1-8-4.1-16.1-6.2-24.1-3.7-0.6-7.4-1-11.1-1.4q-5.5-0.6-10.9-0.7c-7.3-0.2-14.4 0.3-21.5 1.2-3.5 0.5-7 0.9-10.5 1.4q-5.2 0.9-10.3 1.9c-6.8 1.4-13.5 3.1-20 4.9-9.7 2.4-16.6 1.4-22.6-0.5-6.1-1.9-11.4-4.6-17.9-5.9-1.8-0.4-3.5-7-1.3-8.8 4.8-4 10.6-6.3 16.8-6.7 6.3-0.5 13 0.5 19.6 2.7q2.5 0.9 4.9 1.3c1.6 0.3 3.1 0.4 4.7 0.5 3 0.2 5.9-0.1 8.7-0.6 5.6-1 10.8-3.4 16.3-4.8l-2.3-9.2c-2-0.7-3.6-1.6-4.8-2.8-4.3-0.6-8.7-0.8-13.2-0.9-4.4-0.1-8.9 0-13.3-0.5-8.7-0.8-17-2.7-23.6-7.9l-9 2.1-9.1 1.8q-9.1 1.9-18.2 3.8c-8.9 4.6-17 3.4-24.1-2.4q-5-0.3-10-0.6-4.9 0.7-9.9 1.2c-3.4 0.4-6.7 0.5-10.1 0.6-6.7 0.2-13.5 0.2-20.2 0.1-6.8 0-13.6-0.6-20.4-1.1q-10.2-0.9-20.5-1.7c-3.4-0.3-6.7-0.7-10.1-1.1q-5.1-0.5-10.2-1c-6.8-0.7-13.6-1.1-20.4-1.6-6.8-0.6-13.5-1-20.3-1-6.7-0.2-13.5 0.1-20.2 0.4-9.2 0.4-19-4.5-20.5-11.8-2.2-10.2 10-9 20.3-9.6q5-0.3 10-0.3c3.4-0.1 6.7-0.2 10.1-0.1 6.7 0 13.4 0.3 20.1 0.8 6.7 0.5 13.5 0.9 20.2 1.5q10.1 0.9 20.2 2.1 10.1 0.8 20.3 1.7 5.1 0.4 10.1 0.8l5.1 0.3c1.7 0.2 3.4 0.2 5 0.3 6.8 0.2 13.5 0.3 20.2 0.2q5.1 0 10.1-0.2c3.3-0.2 6.6-0.6 9.9-0.9 9.6 2.5 19 3.5 28.4 3.6 9.3-0.1 18.6-1 27.8-2.1l6.9-0.8 6.9-1.1c4.6-0.7 9.2-1.3 13.8-1.8 4.6-0.6 9.2-1 13.8-1.2 4.7-0.2 9.3-0.4 14.1-0.3 5-1.5 10.1-2.6 15.1-3.4q3.8-0.6 7.6-1c2.5-0.3 5-0.6 7.6-0.8 10.1-0.8 20.2-0.6 30.3-0.2 10.1 0.2 20.2 0.7 30.4 1l3.8 0.1 3.8-0.1q3.8-0.1 7.6-0.2c5-0.2 10.1-0.6 15.1-1.1 3.3-0.3 6.5-0.6 9.7-1q4.7-0.8 9.4-1.7c6.2-1.2 12.3-2.7 18.4-4.3 6-1.5 11.9-3.5 17.8-5.5 5.8-2 11.6-4.1 17.4-6.1l4.3-1.6 4.3-1.7q4.3-1.6 8.6-3.3c5.8-2.2 11.5-4.3 17.3-6.3 2.9-0.9 5.8-2.1 8.7-3q4.4-1.6 8.9-2.9c5.9-1.8 11.9-3.4 18.1-4.8q11.5-4.1 22.9-8.3c3-2.3 6-4.6 9.4-6.6 3.4-2 7.2-3.5 12-3.8 8.4-8.1 16.7-15.8 24.8-24.2 1.1-8.4 6.7-11.7 13.7-13.5 7-1.8 15.2-2.6 21.3-5.6 6.9-6.5 14.9-10 23.3-12.7 4.2-1.3 8.6-2.2 13-3q3.4-0.5 6.8-0.9c2.2-0.3 4.5-0.6 6.7-0.9l13.6-7.4c1.8-3 3.6-6.1 5.3-9.1 3-8.6 7.5-13.7 13.4-15.9 5.9-2.2 13.1-1.5 21.5 1.2q13.9-5 27.7-10l2.5-3.8 2.3-3.9 4.8-7.8c-1.2-8.5-4.8-11.4-9.8-10.9-2.5 0.3-5.4 1.4-8.6 2.9-3.1 1.6-6.6 3.6-10.2 5.9-4.3 2.8-9 5.2-13.1 5.9-2.1 0.3-4 0.2-5.7-0.6-1.7-0.8-3.1-2.1-4.1-4.2-1.5-3.4 0-6.2 2.9-8.8 2.8-2.6 7-4.8 10.7-6.7q5.4-2.6 10.6-4.7 2.6-1 5.2-1.8 2.5-1 5-1.7c6.6-2.1 12.9-3.2 18.9-3.3q4.5-0.1 8.8 0.6 4.2 0.6 8.2 2c5.4 1.8 10.3 4.8 15 9q4.8-2.2 9.5-4.4c1.6-0.7 3.2-1.4 4.7-2.2l4.7-2.4c5.7-8.3 12.3-15.9 19.4-23.2 6.9-7.4 14.5-14.4 22.4-21.1 7.7-7 15.7-13.7 23.8-20.3 7.9-6.9 15.8-13.8 23.5-20.7 7.7-7.3 15.1-14.9 22.5-22.3 7.2-7.7 14.4-15.4 21.6-22.9 7.1-7.8 14.2-15.5 21.6-22.8 7.2-7.6 14.6-14.9 22.4-21.8 24.1-22.1 46.4-45.7 68.1-69.7 21.8-24 42.6-48.7 64.4-72.8 24.1-26.8 46.4-55.1 67.5-84.1 21.1-28.9 40.8-58.8 60.2-88.8 1.5-2.2 2.9-4.4 4.3-6.6 1.3-2.2 2.6-4.4 4.1-6.3 2.9-4.1 6.4-7.5 11.2-9.6 1.2-2 2.3-4.1 3.5-6.2 1-2 2.1-4.2 3.3-6.2 2.3-4.1 5-7.8 8.9-10.9 22.6-35.2 43.9-71.2 64.9-107.3 20.9-36.1 41.5-72.4 62.6-108.5q4.2-7.2 8.2-14.4l4.1-7.2c1.4-2.4 2.8-4.8 4-7.3q3.7-7.4 7.4-14.9c2.3-5.1 4.7-10.2 6.7-15.4q3.3-4.4 6.5-8.7c16.5-36.1 32.7-72.6 46.9-109.8 2.6-6.9 6-13.5 9.8-19.8 1.9-3.2 3.7-6.3 5.8-9.4q3-4.6 6.2-9.2c2.2-3.1 4.3-6.1 6.6-9.1l3.3-4.6 3.2-4.5c4.3-6.2 8.5-12.4 12.4-18.9l0.5-0.5q3.2-2.6 6.4-5.2c2.1-1.8 4.1-3.6 6.2-5.4 4.1-3.6 8.3-7.1 12.5-10.3 8.6-6.4 17.5-11.5 27.3-13 2.7-3.2 5.4-6.4 8.1-9.7 2.4-11.5 5.6-22 14.6-25.1 7.4-14 17.3-12.6 27-12.2 12.4-6.3 24.7-11.7 35.5 3.5 3.5 0.8 6.9 1.7 10.2 2.5 19-1.3 37.9-2.6 56.9-4.1 2.7-1.7 5.4-3.4 8.1-5.1 3.9-4.2 7.7-8.4 11.6-12.6q5.6-6.5 11.2-12.9c1.3 4.2 0.6 10.7 0.8 16 0.1 4.3 1 7.8 4.4 8.6-3.4-0.8-4.3-4.3-4.4-8.6-0.2-5.3 0.5-11.8-0.8-16.1 4.2 4.9 13.4-1.6 13.6 11.8-0.2-13.4-9.4-6.9-13.6-11.8 7-10.4 14.8-18.1 23-22.9 8.2-4.8 16.5-6.8 24.6-5.7 15.2 2 25-6.5 35.2-22.5 11.5-19.7 22.6-19.4 33.3 1.1 3.1 2 6.1 4 9.2 6.1 12.6-14.3 25.4-15.9 38.1-13 12.7 2.8 25.3 10.1 37.7 12.6 10.6 2.1 23.6 11.3 35.3 18.1 12.7-3.6 26.2 5 37.9-14.8 5.3-9 8.9 0.2 10.3 11.3q1.4 5.9 2.7 11.9 1.1 5.9 2.3 11.8c8.3 12.4 14.6 10.4 19.7-11.2 3.4-15.4 6.2-18.8 8.7-16.1 1.2 1.3 2.3 4.1 3.5 7.7 1 3.5 2.2 7.8 3.1 12.1q9.9 5.7 19.8 11.5c11.1-12 21-12 30.2-6.1 9.1 5.8 17.6 17.4 25.9 28 5.6 7.2 9.3 8 15.3 7.3 5-0.6 10.1-1 14.4 2.1 2.2 1.6 4.3 4 5.9 7.6 1.6 3.6 3 8.5 3.8 15q7.3 2.8 14.5 5.6 12.1 10.6 24.2 21.4c7.1-7.8 13.7-11.4 18.9-8.5 2.6 1.4 4.9 4.4 6.8 9.3 2 4.9 3.5 11.8 4.3 20.7q1.7 18.4 3.1 36.9c0.2 3.1 0.5 6.2 0.7 9.3 0.1 3.1 0.3 6.2 0.4 9.3q0.5 9.4 0.9 18.7 0.4 9.4 0.8 18.8l0.2 4.7 0.1 4.7 0.1 9.4q0.2 18.9 0.5 37.9z"/><path class="b" d="m1557.3 3823.7c-5.7-6.8-11.9-12.9-18.4-18.8-3.2-2.9-6.5-5.8-9.8-8.6l-9.9-8.6c-6.5-5.8-13-11.6-19.2-17.8-6.1-6.3-11.7-13-16.7-20.3q-4.5-2.3-9-4.5-5.6 0.6-9.6-0.8c-2.7-0.9-4.9-2.4-6.7-4.4-3.6-4-5.5-10.1-6.1-17.7q-3.9-5.2-8-10.3-4.1-5.1-8.1-10.2-8.1-10.1-16.6-19.9c-2.8-3.2-5.5-6.6-8.3-9.9l-8.5-9.8-8.5-9.7-4.3-4.9-4.1-5c-11.1-13.2-22.6-26.1-33.2-39.8-5.3-6.8-10.7-13.6-15.8-20.6-5-7-10-14.1-14.8-21.4l-5.9-8.9c-2-3-3.8-6.1-5.7-9.1q-5.7-9.1-11.4-18.2c-6.4-8.9-12.5-17.9-18.9-26.9q-4.7-6.6-9.5-13.3c-3.2-4.4-6.3-9-9.4-13.4l-9.4-13.5c-3.1-4.4-6.3-8.9-9.3-13.4q-9.1-13.7-18.2-27.4c-23.6-37-45.1-75.7-60.9-118q-5.1-14.3-10.7-28.5c-0.9-2.4-1.8-4.7-2.7-7.1l-2.7-7.1-5.4-14.2-5.6-14.2c-1.8-4.7-3.5-9.4-5.4-14.2-3.6-9.5-7.3-18.9-11-28.3-7-19.1-14.5-37.9-21.3-57.1l-5.2-14.3c-0.9-2.4-1.8-4.7-2.6-7.2l-2.5-7.2q-4.9-14.4-9.8-28.8c-7.3-1.2-12.6-4.8-8.9-18.6q-1.7-7.1-3.4-14.1c-1.2-4.8-2.4-9.4-3.4-14.2-6.5-4.1-9.5-13.6-10.7-23.1-1.6-12-4.3-28.6 3.7-30.2 8.6-1.8 11.6 14.2 15.2 26.3 2.1 7.6 4 15.3 6 23 2.5 4.1 5 8.2 7.2 12.5q3.4 6.4 6.2 13.1 2.9 6.7 5.3 13.7 1.2 3.4 2.5 6.9 1.2 3.5 2.4 7c3.1 9.4 6 18.9 8.8 28.5 3 9.5 6.1 19 9.4 28.3 15.9 43.4 33.4 86.2 52.5 128.2 19.2 42 40.1 83.1 62.6 123.3 4.5 8 6.4 16.7 9.2 25.2 2.8 8.5 6.3 16.8 13.5 24.1 3.3 2.4 6.2 5.2 8.6 8.6 2.4 3.3 4.2 7.3 5.4 11.9 5.1 8.1 10.1 16.3 15.2 24.4 25.6 42.8 55.2 83 85.5 122.4 30.3 39.5 61.4 78 91 118.3 4.6-0.2 9.2 0.6 13.8 3 4.7 2.4 9.2 6.6 14.1 13.1l18.7 18 4.6 4.5 4.8 4.4 9.5 8.8 9.5 8.8c3.2 2.9 6.3 5.9 9.6 8.7l19.4 17.1c3.5 1.2 6.7 2.8 9.7 4.6 3 1.7 5.8 3.6 8.5 5.8 5.2 4.2 9.9 9.2 14.2 14.5 2.2 2.6 4.3 5.3 6.5 8 2.1 2.6 4.3 5.3 6.5 7.9 4.4 5.2 9 10.3 14.3 14.7 47.3 40 95.9 78.8 145.9 113.7-17.3 1.6-35.6-6.5-54.4-17.4-9.3-5.6-18.5-12-27.9-18.3q-3.5-2.4-7-4.7-3.4-2.4-6.9-4.8c-4.6-3.2-9.1-6.2-13.7-9q-6.1-3.9-12.1-8.1c-4-2.8-7.8-5.9-11.7-9-7.7-6.2-15.3-12.7-22.9-19.2-15.1-13.3-30.5-26.2-47.1-37.1-8-5.2-12.5-13.8-10.6-20.2z"/><path class="b" d="m1422.4 1619.8c-7.2-5.3-0.7-15.6 5.9-26.8 23.7-40.1 55.5-73.4 89.3-104.3 7.1-9.9 15.6-17.4 24.6-24.2 9-6.7 18.3-12.8 26.8-20.4 5.6-4.9 13.4-7.5 14.9-1.9 0.7 2.8-0.7 6.1-2.9 9-2.2 3-5.2 5.7-7.9 7.1-9.8 5.3-17.2 12.7-23.8 20.7-6.6 8.1-12.6 16.7-19.7 24.2-30.2 35.2-58.5 71.7-86 108.9-7.3 9.8-15.8 11.6-21.2 7.7z"/><path class="b" d="m3313.2 944.2c1.3-5 10.7-3 18.3-2.1 9.6 1.2 21.9 4.2 35.9 8.3 3.4 1 7 2.1 10.7 3.4q5.4 1.9 11.1 4c7.6 2.8 15.5 5.8 23.5 9.1 4 1.6 7.9 3.5 12 5.3q6 2.8 12.1 5.6 6 2.9 12 5.9l6.1 3.1q2.9 1.6 5.9 3.2c15.6 8.7 31 17.5 44.4 27-4.5-1.4-8.9-2.6-13.2-3.7-4.3-1.1-8.5-2-12.6-2.9-8.3-1.7-16.3-3.4-24.1-5.3-7.7-2-15.5-4.1-23.1-7-7.8-2.9-15.5-6.6-23.4-11.6-12.1-7.3-25.2-11.8-38.3-15.8-13.4-3.8-26.8-7-39.7-12-9.2-3.4-19.2-8.1-17.6-14.5z"/><path class="b" d="m2623.6 829.5c6.8 1 12.8 2.1 17.8 3.8-3.9 1.2-9.2 2.5-15.5 3.7-6.4 1.2-13.8 2.3-21.9 3.3-4.1 0.6-8.3 1-12.8 1.5q-6.6 0.9-13.6 1.7c-9.3 1-19.1 2-29.1 2.8-39.8 4-82.1 7.1-107.8 6.6 26.7-12 67-20.5 105.6-24.3 9.6-0.7 19.2-1.2 28.4-1.5q6.8-0.2 13.4-0.2c4.4 0 8.7 0.2 12.8 0.4 8.2 0.5 15.9 1.2 22.7 2.2z"/><path class="b" d="m3888.6 1427.9c3.5 5.1 6.4 10.6 9 16 2.6 5.5 4.8 11.1 6.7 16.6-7.8-6.3-15.3-12.8-22.8-19.4q-11.3-9.6-22-19.7l-5.3-5-5.5-5q-5.4-4.9-10.7-9.9-5.3-5.1-10.5-10.1c-3.5-3.4-7.2-6.6-10.7-9.9q-10.7-9.9-21.3-19.7c-7.2-6.3-14.4-12.7-21.7-19-7.2-6.3-14.8-12.2-22.4-18.1-7.6-5.8-15.1-11.7-23.1-16.9-6.9-4.7-9.8-10.7-10.7-16.3-3.7-2.7-7.4-5.3-11.3-7.8q-5.7-3.7-11.5-7.4l-11.5-7.3-5.8-3.7q-2.8-1.9-5.7-3.6c-15.6-9.5-30.7-19.5-45.6-30.4 8.6 0.9 19.3 3.6 30.6 8.3 5.7 2.4 11.7 5.1 17.7 8.1 3 1.5 6.1 3.1 9.1 4.8 3 1.7 6 3.5 9 5.4 12.1 7.4 24.2 15.7 34.8 24.9 5.3 4.5 10.4 9.1 15.1 13.7 1.2 1.2 2.3 2.3 3.4 3.4q1.7 1.8 3.2 3.6 3.2 3.5 6 7c20.3 11.8 38 27.5 55.4 43.4 8.6 8.2 17.2 16.3 26 24.2 8.7 8 17.7 15.7 27.3 22.8 9.8 7.3 18 16.8 24.8 27z"/><path class="b" d="m3184.4 890c8.4 3.2 16.4 7.6 23.6 14.2-14.6-1-29-2.6-43.3-4.6-14.3-1.8-28.4-4-42.5-6.5-14.1-2.2-28.1-4.7-42-7.4-14-2.3-27.9-4.7-41.8-7-18.5-2.7-32-12.1-43.3-21.1-3.6-2.9-5-6.1-4-8.4 1-2.2 4.4-3.6 10-2.4 7.5 1.7 15.1 2.4 22.8 2.7q5.7 0.3 11.5 0.5l5.8 0.2q2.9 0.1 5.7 0.4c7.7 0.6 15.2 1.6 22.5 3.6 3.6 1 7.2 2.2 10.6 3.8 1.8 0.8 3.5 1.7 5.1 2.7q2.6 1.5 5 3.3c6.3 3.3 12.5 6.5 18.8 9.7 3.8 1.7 7.7 3 11.7 4 2 0.5 4 0.9 6.1 1.4q3.1 0.6 6.2 1.2c8.4 1.4 17.1 2.3 25.8 3.5 4.3 0.7 8.7 1.3 13 2.4 4.3 1 8.5 2.3 12.7 3.8z"/><path class="b" d="m1154 2985.6c2.6 8.3 5.1 16.6 8.3 24.6 3 8.1 6.1 16 9.5 23.8q1.3 2.9 2.6 5.8 1.3 2.9 2.8 5.7 2.9 5.6 5.9 11.1c3.6 6.2 5.3 12 5.7 17.3q0.2 3.9-0.4 7.5c-0.4 2.3-1.2 4.6-2.2 6.7-4.1 8.7-11.2 2.2-17.4-4.8-3-3.4-7.1-12-11.7-23.2q-1.7-4.2-3.5-8.9-0.9-2.3-1.8-4.7-0.8-2.5-1.6-5c-2.3-6.7-4.5-13.7-6.6-20.8q-1.6-5.3-3.1-10.6c-1-3.5-1.8-7.1-2.7-10.5-1.6-6.9-3.1-13.6-4.3-19.6-2.5-12.1-3.5-21.9-3-26.8 0.6-5 1.9-9.5 2.7-13.5 8.1 3.2 10.5 12 13.1 21 1.1 4.2 2.5 8.3 3.8 12.5q1.9 6.2 3.9 12.4z"/><path class="b" d="m2129.7 1100.1c-13.9 8.2-28.9 15.1-45 24.3-0.7 0.3-3.8 2-6.3 2.2-4.4 0.3-9.7 1.8-15.2 3.7-5.4 2.1-11.1 4.5-16.2 6.4-10.4 3.8-19 5.6-20.5-1.8-1.5-7.3 4.3-13.5 13.5-18.3 4.7-2.4 10.1-4.4 16-6.1 5.9-1.5 12.2-2.7 18.3-3.4 4.1-0.6 8-2 11.9-4 3.9-1.9 7.6-4.4 11.6-6.7 7.9-4.8 16-9.7 25.4-11.1 2.1-0.3 4.3-0.7 6.5-1.2 2.3-0.4 4.5-0.6 6.5-0.7 3.9-0.2 6.7 0.7 6.7 4.1 0 3.2-7.6 9.2-13.2 12.6z"/><path class="b" d="m2309.4 1035.5c2.4 4.5-2.7 9.6-10.4 11.7q-6.2 1.6-12.3 3.5-6.1 2-12.2 4.1c-8.2 2.7-16.5 5.5-25 8.2-8.4 2.8-17 5.5-26.1 7.8-4.5 1.1-9.1 2.2-13.8 3.1q-7 1.6-14.3 2.7 4.6-6.2 9.8-11.1 1.3-1.3 2.6-2.4 1.4-1.2 2.7-2.3 2.8-2.1 5.7-4c7.7-5 15.9-8.8 24.4-11.9 8.5-3 17.3-5.1 26-7.1q6.6-1.5 13-3.1c4.3-1 8.6-1.9 12.8-3 7.6-1.9 14.8-0.5 17.1 3.8z"/><path class="b" d="m2071.6 4181c9.8 3.6 19.7 6.9 29.9 8.6 10.8 1.7 17.4 7.6 16.6 14-0.7 5.5-6.1 11.5-14.2 8.5-27-10-53.1-22.7-78.8-35.7-2.3-1.2-2.8-5.1-3.8-7.1 6-3.1 13.1-2.5 21.1 0.4 4.9 1.8 9.7 3.7 14.6 5.7q3.6 1.5 7.3 2.9 3.6 1.3 7.3 2.7z"/><path class="b" d="m3215.7 862.2c-9.6-2.6-19.3-4.9-29.1-7-9.7-2.3-19.5-4-29.3-6.1-4.9-1-9.7-2.1-14.6-3.2-4.8-1.2-9.6-2.5-14.5-3.7-9.9-2.7-20.7-5.3-20.1-12 0.5-5.2 9.4-6.3 17.7-3q3.6 1.4 7.4 2.6c1.2 0.3 2.5 0.7 3.7 1.1q1.9 0.6 3.8 1.1c5.1 1.4 10.2 2.7 15.4 3.7q7.8 1.6 15.7 2.9l7.8 1.3c2.7 0.5 5.3 1 7.9 1.5 10.5 2.1 20.8 4.3 30.8 7.6 2.5 0.8 4.9 1.6 7.3 2.6q3.7 1.5 7.2 3.2c4.6 2.3 9.2 4.9 13.5 8q11.1 0.8 21.7 2.7 10.6 2.2 20.8 5.2c6.9 2 13.6 4.3 20.3 6.7 6.6 2.5 13.1 5.3 19.6 8.2q9.7 4.3 19.4 8.8c6.4 3.1 12.7 6.3 19.1 9.4 6.3 3.2 12.7 6.3 19.1 9.3 3.3 1.4 6.5 2.9 9.7 4.5 3.2 1.5 6.5 3 9.7 4.4q-5.1-1.3-10.3-2.5c-3.4-0.8-6.8-1.7-10.3-2.4q-10.3-2.2-20.6-4.6c-6.8-1.5-13.6-3.2-20.4-4.9q-10.2-2.4-20.4-5.1-10.1-2.8-20.1-6-10.1-3.1-20-6.7-10-3.7-19.9-8.1c-6.6-2.9-13.2-5.9-19.8-9.3q-6.9-3-14-5.6c-4.7-1.7-9.4-3.3-14.2-4.6z"/><path class="b" d="m3576.8 1193.8c-9.4-2.7-15.8-4-22.2-6.6-4.3-1.7-8.5-3.6-12.4-5.8-4-2.1-8-4.2-11.5-6.7-7.3-4.9-13.5-10.6-18.3-17.4-2.2-3-0.8-9.2 1.4-9 8.4 0.8 15.5 4.7 22.3 9.4 3.4 2.3 6.7 4.8 10.1 7.2 3.4 2.4 6.7 4.8 10.4 6.8 8.4 4.6 14.8 10.4 20.2 22.1z"/><path class="b" d="m2438.7 4273c-0.7-8.5 12.2-7.5 20.8-9.6q6.2-1.6 12.4-2.6c4.1-0.7 8.3-1.2 12.7-1.4 8.6-0.3 17.6 0.8 27.4 4.1 8.6 2.8 10.6 7.6 7.5 11.3-2.6 3.2-5.9 5-9.8 5.9-3.8 0.8-8.1 0.7-12.5 0.2-9-1-18.8-3.8-27.4-4.3-10.1-0.8-20.9 2.1-31.1-3.6z"/><path class="b" d="m1934.5 4055.5c5.9 4.1 9.6 8 6 11.1-2.7 2.3-6.1 2.7-10 2-3.9-0.8-8.2-2.7-12.8-5.1-4.5-2.4-9.3-5.2-14-7.7-4.8-2.6-9.5-4.7-13.8-6.1-9.7-2.8-20.3-13.9-13.5-18.6 10.1-7.1 25 6.3 38.4 12.4 5.6 3.6 13.8 7.9 19.7 12z"/><path class="b" d="m1186.5 2034.6c-0.3 21.8-11.5 34.8-27.6 56.3 1.4-7.2 2.2-13.8 2.9-20 0.7-6.1 1.5-11.7 2.5-16.8 2.2-10.2 5.8-18.5 14.7-24.7 4.2-2.9 7.8-0.9 7.5 5.2z"/><path class="b" d="m1007 2248.1c1.8 8.8 1.5 17.4-0.2 25.8-0.9 4.3-2.1 8.4-3.5 12.6-1.4 4.2-3 8.3-4.7 12.4-1.8 4.2-3.7 8.2-9.6 21.1-0.2-15-0.9-20.9-0.2-26.7 0.9-8.5 0.4-17.4 1-26.1 0.6-8.6 2.6-16.9 9.2-23.8 2.1-2.2 3.8-2.5 5.1-1.5 1.3 0.9 2.3 3.2 2.9 6.2z"/><path class="c" d="m1654.3 2836.8h-180v-48.7h24.3v-243.2h-24.3v-48.7h180l38.9 39v116.7l-14.6 14.6 14.6 14.6v116.8zm-107-291.9v97.3h97.3v-97.3zm0 145.9v97.3h97.3v-97.3zm243.2 146h-48.6l85.1-340.6h48.7l85.1 340.6h-48.6l-24.4-97.3h-72.9zm85.1-146l-24.3-97.3-24.4 97.3zm133.8 107v-34h48.7v24.3h97.3v-97.3h-107.1l-38.9-38.9v-116.7l38.9-39h116.8l38.9 39v34h-48.6v-24.3h-97.3v97.3h107l38.9 38.9v116.7l-38.9 39h-116.8zm437.9 38.9h-194.6v-340.5h194.6v48.6h-146v97.3h97.3v48.6h-97.3v97.3h146zm243.4-38.9v-34h48.7v24.3h97.3v-97.3h-107l-39-38.9v-116.8l39-38.9h116.7l38.9 38.9v34.1h-48.6v-24.3h-97.3v97.2h107l38.9 39v116.7l-38.9 38.9h-116.7zm364.8 39h-48.6v-291.9h-73v-48.7h194.6v48.7h-73zm277.3 0h-116.7l-39-38.9v-262.7l39-39h116.7l38.9 39v262.7zm-107-291.9v243.2h97.3v-243.2zm243.2 291.9h-48.6v-340.6h155.7l38.9 38.9v116.8l-14.6 14.6 14.6 14.6v155.7h-48.7v-146h-97.3zm0-291.9v97.3h97.3v-97.3zm389.2 291.9h-194.6v-340.5h194.6v48.6h-145.9v97.3h97.3v48.7h-97.3v97.3h145.9z"/></svg>